<svg id="_21" data-name="21" xmlns="http://www.w3.org/2000/svg" viewBox="0 0 800 800"><defs><style>.cls-1,.cls-2{fill:#de1f26;}.cls-1{fill-rule:evenodd;}</style></defs><path class="cls-1" d="M394.58,132.77a16.87,16.87,0,0,0-27.68,0c-34.31,47.95-120.58,174.14-120.58,233.52a134.41,134.41,0,0,0,260.2,47.14,272.83,272.83,0,0,1-36.91,22.68l-6.22,3.2-6.22-3.2c-35.11-17.66-75.43-50.36-97.3-82.66a145.57,145.57,0,0,1-12-20.86,87.68,87.68,0,0,1-5.82-15,105.6,105.6,0,0,1-5.41-33.3c0-44.14,34.1-82.26,79-82.26a77.67,77.67,0,0,1,29.69,6c-19.25-30.69-38.31-58-50.75-75.23Z"/><path class="cls-1" d="M358.46,322.56c.61,1.4,1.21,2.6,1.82,3.81,27.47,59.18,103.11,97.5,103.11,97.5s75.64-38.32,103.12-97.5c0,0,.8-1.61,1.8-3.81l-75-.4-11,20.86a5.66,5.66,0,0,1-4.82,2.61,5.26,5.26,0,0,1-4.21-3.42L465,318.14l-7.43,17.65a4.71,4.71,0,0,1-5,2.82,4.53,4.53,0,0,1-4.22-4l-7-42.33-8.24,64.4a4.6,4.6,0,0,1-4.61,4.22h-.2a4.77,4.77,0,0,1-4.81-4l-9.63-49.76L408,319.34a5.1,5.1,0,0,1-4.62,2.82Z"/><path class="cls-1" d="M511.14,216a64.1,64.1,0,0,0-47.75,21.66A64.1,64.1,0,0,0,415.64,216c-35.9,0-65.19,30.49-65.19,68.21a94.66,94.66,0,0,0,4.41,28.28l45.54-.2,11-23.07a4.86,4.86,0,0,1,5-2.6,4.68,4.68,0,0,1,4.22,3.8l6.82,35.32,8.43-65.61a4.43,4.43,0,0,1,4.61-4h.6a4.87,4.87,0,0,1,4.41,4L455,316.74l6-14.25a4.48,4.48,0,0,1,4.62-3,5.24,5.24,0,0,1,4.61,3.2l8.63,25.69,7-13.45a5,5,0,0,1,4.41-2.61l81.45,1a101.2,101.2,0,0,0,4.62-29.08c0-37.72-29.09-68.21-65.2-68.21Z"/><path class="cls-2" d="M189.15,606.06v15.55a32.86,32.86,0,0,1-3.58,15.63,25.41,25.41,0,0,1-10.16,10.46,30.55,30.55,0,0,1-15.22,3.69,32.62,32.62,0,0,1-15.35-3.47,24.83,24.83,0,0,1-10.29-9.83,29,29,0,0,1-3.64-14.73V599.88a32.71,32.71,0,0,1,3.58-15.6,25.4,25.4,0,0,1,10.16-10.43,30.45,30.45,0,0,1,15.22-3.7A29.63,29.63,0,0,1,173,573.08a27.23,27.23,0,0,1,10.05,8.3,30.4,30.4,0,0,1,5.45,12.42H172.29a10.41,10.41,0,0,0-2.71-4.35,12.73,12.73,0,0,0-4.43-2.79,14.87,14.87,0,0,0-5.28-1,13.83,13.83,0,0,0-7,1.75,12,12,0,0,0-4.71,5,16.06,16.06,0,0,0-1.67,7.45v23.48a12.56,12.56,0,0,0,1.7,6.57,11.2,11.2,0,0,0,4.82,4.38,16.22,16.22,0,0,0,7.22,1.54,14.51,14.51,0,0,0,7.09-1.67,11.3,11.3,0,0,0,4.68-4.85,16.08,16.08,0,0,0,1.65-7.5v-1.31H161.56V606.06Z"/><path class="cls-2" d="M218.39,650.57H202.84V571h15.55Z"/><path class="cls-2" d="M247,647.75a25.23,25.23,0,0,1-10.21-10.29,31.75,31.75,0,0,1-3.61-15.41V599.5a31.82,31.82,0,0,1,3.61-15.42A25.36,25.36,0,0,1,247,573.79a33.74,33.74,0,0,1,30.49,0,25.29,25.29,0,0,1,10.21,10.29,31.82,31.82,0,0,1,3.62,15.42v22.55a31.75,31.75,0,0,1-3.62,15.41,25.17,25.17,0,0,1-10.21,10.29,33.74,33.74,0,0,1-30.49,0Zm22.37-13.08a11.77,11.77,0,0,0,4.73-4.9,15.58,15.58,0,0,0,1.67-7.34V599.11a15.54,15.54,0,0,0-1.67-7.33,11.77,11.77,0,0,0-4.73-4.9,15.52,15.52,0,0,0-14.24,0,11.77,11.77,0,0,0-4.73,4.9,15.42,15.42,0,0,0-1.67,7.33v23.32a15.46,15.46,0,0,0,1.67,7.34,11.77,11.77,0,0,0,4.73,4.9,15.6,15.6,0,0,0,14.24,0Zm-14.62,28h15v15.27h-15Z"/><path class="cls-2" d="M296.23,571h58.36v14.46H296.23Zm21.68,6.52h15v73.08h-15Z"/><path class="cls-2" d="M391.27,571h15v79.6h-15Zm7,32.91h46.37v14.45H398.22ZM434.85,571h15v79.6h-15Z"/><path class="cls-2" d="M479.55,647.75a25.23,25.23,0,0,1-10.21-10.29,31.75,31.75,0,0,1-3.62-15.41V599.5a31.82,31.82,0,0,1,3.62-15.42,25.36,25.36,0,0,1,10.21-10.29,33.74,33.74,0,0,1,30.49,0,25.36,25.36,0,0,1,10.21,10.29,31.82,31.82,0,0,1,3.61,15.42v22.55a31.75,31.75,0,0,1-3.61,15.41A25.23,25.23,0,0,1,510,647.75a33.74,33.74,0,0,1-30.49,0ZM514,557.94l-8.71,7.67-10.67-8.21L484,565.61l-8.7-7.67,19.38-15Zm-12.1,76.73a11.85,11.85,0,0,0,4.74-4.9,15.58,15.58,0,0,0,1.67-7.34V599.11a15.54,15.54,0,0,0-1.67-7.33,11.85,11.85,0,0,0-4.74-4.9,15.5,15.5,0,0,0-14.23,0,11.73,11.73,0,0,0-4.74,4.9,15.54,15.54,0,0,0-1.67,7.33v23.32a15.58,15.58,0,0,0,1.67,7.34,11.73,11.73,0,0,0,4.74,4.9,15.58,15.58,0,0,0,14.23,0Zm-9.42-98.95,10-10.24,15.66,13.41-9.48,9.2Z"/><path class="cls-2" d="M538.64,571H557l29.62,61-1.31,1.42V571h14.34v79.55H581.18l-29.51-60.06L553,589v61.48H538.64Z"/><path class="cls-2" d="M673.75,606.06v15.55a32.86,32.86,0,0,1-3.58,15.63A25.41,25.41,0,0,1,660,647.7a30.55,30.55,0,0,1-15.22,3.69,32.62,32.62,0,0,1-15.35-3.47,24.83,24.83,0,0,1-10.29-9.83,29,29,0,0,1-3.64-14.73V599.88a32.71,32.71,0,0,1,3.58-15.6,25.4,25.4,0,0,1,10.16-10.43,30.45,30.45,0,0,1,15.22-3.7,29.63,29.63,0,0,1,13.13,2.93,27.23,27.23,0,0,1,10,8.3,30.4,30.4,0,0,1,5.45,12.42H656.89a10.51,10.51,0,0,0-2.71-4.35,12.73,12.73,0,0,0-4.43-2.79,14.87,14.87,0,0,0-5.28-1,13.83,13.83,0,0,0-7,1.75,12,12,0,0,0-4.71,5,16.06,16.06,0,0,0-1.67,7.45v23.48a12.56,12.56,0,0,0,1.7,6.57,11.2,11.2,0,0,0,4.82,4.38,16.22,16.22,0,0,0,7.22,1.54,14.51,14.51,0,0,0,7.09-1.67,11.3,11.3,0,0,0,4.68-4.85,16.08,16.08,0,0,0,1.65-7.5v-1.31H646.16V606.06Z"/></svg>