<svg id="_21" data-name="21" xmlns="http://www.w3.org/2000/svg" viewBox="0 0 800 800"><defs><style>.cls-1{fill:#de1f26;fill-rule:evenodd;}</style></defs><path class="cls-1" d="M388.52,140.6a23,23,0,0,0-37.69,0c-46.71,65.28-164.17,237.1-164.17,318,0,101.06,81.94,182.73,183,182.73A182.69,182.69,0,0,0,540.94,522.73a371.81,371.81,0,0,1-50.26,30.88L482.22,558l-8.47-4.36C425.94,529.56,371,485,341.27,441.07a196.79,196.79,0,0,1-16.39-28.41A118.37,118.37,0,0,1,317,392.17a143.44,143.44,0,0,1-7.37-45.33c0-60.1,46.44-112,107.62-112A105.77,105.77,0,0,1,457.63,243c-26.22-41.79-52.17-78.94-69.11-102.43Z"/><path class="cls-1" d="M339.35,399c.83,1.91,1.64,3.54,2.47,5.18,37.41,80.58,140.4,132.75,140.4,132.75s103-52.17,140.39-132.75c0,0,1.09-2.18,2.46-5.18l-102.16-.55-15,28.4a7.71,7.71,0,0,1-6.56,3.56,7.17,7.17,0,0,1-5.73-4.65L484.4,393l-10.11,24a6.42,6.42,0,0,1-6.83,3.83,6.18,6.18,0,0,1-5.74-5.47l-9.55-57.64L441,445.44a6.26,6.26,0,0,1-6.27,5.74h-.28a6.51,6.51,0,0,1-6.56-5.47L414.75,378l-7.93,16.67a6.94,6.94,0,0,1-6.28,3.83Z"/><path class="cls-1" d="M547.22,254a87.21,87.21,0,0,0-65,29.5,87.27,87.27,0,0,0-65-29.5c-48.88,0-88.77,41.51-88.77,92.88a129.11,129.11,0,0,0,6,38.5l62-.27,15-31.41a6.59,6.59,0,0,1,6.82-3.55,6.38,6.38,0,0,1,5.74,5.18l9.29,48.08,11.47-89.32a6,6,0,0,1,6.28-5.46h.83c2.73,0,5.46,2.46,6,5.46l12.84,77,8.19-19.39a6.12,6.12,0,0,1,6.29-4.1A7.15,7.15,0,0,1,491.5,372l11.75,35,9.55-18.31a6.8,6.8,0,0,1,6-3.55l110.9,1.36c3.82-12.83,6.29-25.94,6.29-39.59,0-51.37-39.61-92.88-88.78-92.88Z"/></svg>